PathFileType	4	(X/Y/Z)	OpenSim_Sub09_CSStiffKnee_Magnet.trc
DataRate	CameraRate	NumFrames	NumMarkers	Units	OrigDataRate	OrigDataStartFrame	OrigNumFrames
100	100	26	8	m	100	6237	7127
Frame#	Time	torso_imu_offset_imu	pelvis_imu_offset_imu	tibia_r_imu_offset_imu	femur_r_imu_offset_imu	tibia_l_imu_offset_imu	femur_l_imu_offset_imu	toes_r_imu_offset_imu	toes_l_imu_offset_imu
				X1	Y1	Z1	X2	Y2	Z2	X3	Y3	Z3	X4	Y4	Z4	X5	Y5	Z5	X6	Y6	Z6	X7	Y7	Z7	X8		Y8	Z8	

6237	62.36000000	-0.88568553	-0.32003410	0.10262327	-0.57444201	0.35552765	-0.69382866	-0.27843019	-0.81849803	-0.17217219	-0.79464020	-0.32735965	-0.14513851	-0.60012002	0.50123863	0.28005162	-0.61392439	0.16110137	0.30871067	-0.76521828	-0.40595213	-0.23810770	-0.75775891	-0.21315745	-0.29896822
6238	62.37000000	-0.88353676	-0.32694815	0.10001017	-0.57241414	0.36509929	-0.68972503	-0.30855215	-0.80789224	-0.17689590	-0.79657498	-0.32233707	-0.14477289	-0.59721332	0.50446045	0.28183426	-0.60939697	0.16839973	0.31194202	-0.76058361	-0.39547884	-0.27266842	-0.76131338	-0.22087107	-0.29505596
6239	62.38000000	-0.88013392	-0.33137866	0.10364742	-0.57437034	0.36809776	-0.68613634	-0.33875032	-0.79544155	-0.18385706	-0.79973575	-0.31609430	-0.15204926	-0.59295543	0.50697113	0.27695730	-0.60518674	0.17543919	0.30982207	-0.75475144	-0.37631376	-0.30113869	-0.76041536	-0.20981592	-0.29086594
6240	62.39000000	-0.87778176	-0.33259213	0.10330129	-0.57086257	0.37369977	-0.68814024	-0.36345061	-0.78191827	-0.19417282	-0.80385056	-0.31042979	-0.15345090	-0.59265380	0.51113235	0.28053203	-0.60610340	0.17938081	0.30523067	-0.74744058	-0.34860125	-0.32127853	-0.76342265	-0.20722065	-0.28364000
6241	62.40000000	-0.87809534	-0.33654444	0.10374231	-0.57428306	0.37508205	-0.68717346	-0.39897080	-0.76852296	-0.20127457	-0.80347034	-0.30592085	-0.15871999	-0.58672712	0.51973207	0.28448366	-0.60049560	0.18235879	0.31511141	-0.74189389	-0.32485417	-0.34488232	-0.77112810	-0.21463811	-0.27159475
6242	62.41000000	-0.87228151	-0.34064702	0.10734126	-0.56812851	0.37868842	-0.68601836	-0.42496522	-0.75165877	-0.21138889	-0.80353225	-0.29524342	-0.16293619	-0.57774361	0.52159508	0.28428969	-0.59920196	0.18433646	0.32001117	-0.73068870	-0.30311056	-0.36398206	-0.76832813	-0.21089434	-0.26740834
6243	62.42000000	-0.87324864	-0.34563685	0.10543792	-0.56956090	0.37708053	-0.68819464	-0.44454451	-0.73851659	-0.21251138	-0.81051915	-0.29278831	-0.16669780	-0.57799211	0.52628497	0.28552530	-0.59482317	0.18677634	0.32335501	-0.71278485	-0.27531957	-0.38914334	-0.77241026	-0.21378687	-0.26083730
6244	62.43000000	-0.87612050	-0.34430455	0.10834713	-0.56418599	0.38525886	-0.68820165	-0.47083920	-0.72300524	-0.21211212	-0.80860950	-0.28951684	-0.17049926	-0.56898574	0.52999239	0.28916202	-0.58911428	0.18908724	0.32715292	-0.69645846	-0.24885219	-0.40339957	-0.77246726	-0.21181726	-0.25168170
6245	62.44000000	-0.86989624	-0.34782311	0.10973287	-0.56558902	0.38735701	-0.68133521	-0.49837751	-0.70638860	-0.21049920	-0.80872816	-0.27878559	-0.16926886	-0.56541271	0.53428528	0.29282438	-0.58549790	0.19109587	0.32614720	-0.67982323	-0.22602103	-0.41858494	-0.77629027	-0.21156624	-0.24060918
6246	62.45000000	-0.86936107	-0.35525897	0.11285563	-0.56048279	0.39626480	-0.68148817	-0.51811679	-0.68693697	-0.21489443	-0.81106269	-0.27465808	-0.16878161	-0.56545246	0.54528315	0.28841765	-0.57857555	0.19469614	0.33410192	-0.66856077	-0.20254945	-0.42862557	-0.78070602	-0.21326358	-0.23359096
6247	62.46000000	-0.87011735	-0.35842728	0.11687116	-0.55923290	0.39381853	-0.68358711	-0.54462998	-0.66554133	-0.21277785	-0.81663727	-0.27043414	-0.16814124	-0.55989636	0.55048524	0.28993003	-0.57886037	0.20000399	0.33296600	-0.65585502	-0.18610199	-0.43503222	-0.78232998	-0.20977268	-0.23185274
6248	62.47000000	-0.86081873	-0.36020144	0.11527375	-0.55760527	0.39565711	-0.68980678	-0.56558260	-0.64598147	-0.21706466	-0.82075777	-0.26288341	-0.16238665	-0.55232076	0.55034198	0.29386080	-0.57829191	0.19997344	0.33386204	-0.64235068	-0.17025973	-0.44887261	-0.78531487	-0.20664953	-0.22503556
6249	62.48000000	-0.86463962	-0.36236863	0.11593038	-0.55377122	0.39115369	-0.69121448	-0.59263330	-0.62826398	-0.22146178	-0.81955722	-0.26355887	-0.15617502	-0.54956338	0.56290080	0.29157658	-0.57633334	0.20701851	0.33953981	-0.63485265	-0.15514187	-0.45993238	-0.78505394	-0.20618411	-0.21586110
6250	62.49000000	-0.86029221	-0.36451434	0.12053192	-0.55442049	0.39746256	-0.68330223	-0.60676824	-0.60452749	-0.22851232	-0.81655664	-0.26098591	-0.15610353	-0.54606772	0.56263467	0.29144362	-0.57256313	0.20857509	0.34055435	-0.63021974	-0.14043336	-0.46444829	-0.78986428	-0.20571377	-0.21825746
6251	62.50000000	-0.85654969	-0.36607605	0.12290755	-0.55031270	0.40001010	-0.68763794	-0.62064369	-0.58100849	-0.24166985	-0.81973399	-0.25982217	-0.15124705	-0.54045255	0.56619300	0.29893209	-0.56803893	0.20623509	0.34011614	-0.61866919	-0.12924165	-0.47348476	-0.78511189	-0.19720668	-0.21738079
6252	62.51000000	-0.85732407	-0.37102919	0.12895312	-0.55240929	0.39682023	-0.68773977	-0.63787715	-0.55590216	-0.25755061	-0.82066633	-0.25709338	-0.14541518	-0.53118106	0.57837469	0.29247842	-0.56318278	0.21320194	0.34172667	-0.61100448	-0.11679367	-0.49439090	-0.78800235	-0.19674436	-0.20966540
6253	62.52000000	-0.85731233	-0.36681707	0.13087169	-0.55289982	0.39505341	-0.69004638	-0.65137895	-0.53573347	-0.26272351	-0.82466576	-0.25522553	-0.14292535	-0.52945783	0.58636120	0.29057577	-0.56396728	0.22092099	0.34425623	-0.60277960	-0.10851866	-0.50556453	-0.79250763	-0.19495473	-0.20900091
6254	62.53000000	-0.85735861	-0.36571676	0.13096169	-0.54818844	0.39271987	-0.69222659	-0.66445005	-0.51392408	-0.27026425	-0.82162920	-0.25793385	-0.13911607	-0.52569358	0.59002819	0.29099378	-0.56487112	0.22542390	0.34406250	-0.59035547	-0.09268623	-0.52009290	-0.79356527	-0.18986003	-0.20238661
6255	62.54000000	-0.85683095	-0.37038776	0.14000993	-0.54736725	0.39226297	-0.69082204	-0.67791536	-0.49366979	-0.27691050	-0.82593417	-0.25435505	-0.13369125	-0.51638930	0.58998077	0.28481238	-0.55485838	0.23109896	0.33521338	-0.58073628	-0.08707479	-0.54401625	-0.78896214	-0.18584001	-0.19575330
6256	62.55000000	-0.85914575	-0.37200313	0.13919111	-0.54579539	0.39153142	-0.69673000	-0.69095067	-0.47503300	-0.28350412	-0.82416432	-0.25677006	-0.13388390	-0.51106126	0.60507981	0.28957269	-0.55279177	0.24038557	0.33452933	-0.56216193	-0.07898322	-0.56008610	-0.79375185	-0.18073092	-0.19285064
6257	62.56000000	-0.85743363	-0.36895622	0.14783180	-0.54339479	0.38498852	-0.69862530	-0.70495429	-0.45692874	-0.29076471	-0.82603247	-0.25534389	-0.12529786	-0.50693687	0.61237755	0.28374044	-0.55797887	0.24222096	0.33420478	-0.54693569	-0.07237823	-0.57932448	-0.79425458	-0.18194593	-0.19338024
6258	62.57000000	-0.85961453	-0.36241374	0.14704737	-0.54093628	0.38635776	-0.69939015	-0.71291933	-0.43309846	-0.30036281	-0.82621243	-0.25182584	-0.11635302	-0.50286969	0.61415757	0.28259765	-0.54744953	0.24588858	0.33266941	-0.53426078	-0.06665033	-0.59527394	-0.79431908	-0.17967940	-0.18643508
6259	62.58000000	-0.85453905	-0.35997983	0.15102482	-0.54056499	0.37725802	-0.70501812	-0.72379135	-0.41211767	-0.30580008	-0.82643802	-0.25185134	-0.11103373	-0.49625981	0.62337975	0.27952343	-0.54329844	0.25672071	0.33374121	-0.51692376	-0.06271033	-0.60225052	-0.79888502	-0.17494137	-0.18175140
6260	62.59000000	-0.85739911	-0.36363190	0.15988813	-0.53595235	0.37144386	-0.71251964	-0.72730704	-0.39499609	-0.30483722	-0.82839527	-0.25040565	-0.11110634	-0.48225085	0.62582485	0.28093210	-0.54440783	0.26465884	0.32807560	-0.50696971	-0.05031888	-0.61104427	-0.80285408	-0.16997010	-0.18045389
6261	62.60000000	-0.86040122	-0.35546489	0.16262085	-0.52895645	0.36950382	-0.71568031	-0.74021630	-0.37993065	-0.30374991	-0.82381005	-0.24919461	-0.10358921	-0.47904314	0.63760282	0.28267106	-0.54523291	0.27072007	0.32461578	-0.49633915	-0.04062242	-0.62401764	-0.80005869	-0.16973072	-0.17459259
6262	62.61000000	-0.85948630	-0.35114342	0.16288622	-0.52334861	0.36103604	-0.71928471	-0.74473875	-0.36558483	-0.30897708	-0.82815114	-0.25207452	-0.10061309	-0.47848528	0.63880365	0.27949702	-0.54002825	0.27734159	0.31893242	-0.48487977	-0.02650278	-0.63256247	-0.80865202	-0.16342909	-0.16932522
